<?xml version="1.0" encoding="utf-8"?>
<!-- Generator: Adobe Illustrator 16.0.0, SVG Export Plug-In . SVG Version: 6.00 Build 0)  -->
<!DOCTYPE svg PUBLIC "-//W3C//DTD SVG 1.1//EN" "http://www.w3.org/Graphics/SVG/1.1/DTD/svg11.dtd">
<svg version="1.1" id="レイヤー_1" xmlns="http://www.w3.org/2000/svg" xmlns:xlink="http://www.w3.org/1999/xlink" x="0px"
	 y="0px" width="202.845px" height="77.927px" viewBox="0 0 202.845 77.927" style="enable-background:new 0 0 202.845 77.927;"
	 xml:space="preserve">
<style type="text/css">
<![CDATA[
	.st0{stroke:#231815;stroke-miterlimit:10;}
	.st1{fill:#FFDE00;stroke:#000000;stroke-miterlimit:10;}
]]>
</style>
<g>
	<polygon class="st0" points="55.697,0.562 39.364,0.562 37.031,22.562 44.031,26.895 60.364,15.562 	"/>
	<polygon class="st0" points="70.031,22.896 63.364,19.896 46.031,32.062 31.697,28.229 25.697,22.229 14.364,22.229 15.601,3.917 
		0.697,29.562 28.697,43.895 41.364,65.895 	"/>
</g>
<g>
	<polygon class="st0" points="140.759,3.917 152.038,6.355 156.001,21.598 148.38,33.488 136.186,22.818 	"/>
	<polygon class="st0" points="136.186,3.917 127.955,0.562 119.088,6.355 116.674,29.372 126.43,8.184 	"/>
	<polygon class="st0" points="142.241,72.958 143.076,71.589 158.136,46.902 156.001,43.853 198.363,31.659 167.891,33.488 
		162.709,31.659 154.478,35.012 140.759,36.841 131.308,33.488 124.905,42.634 129.173,46.902 	"/>
</g>
<text transform="matrix(1 0 0 1 62.3638 -35.1045)" style="font-family:'KozGoPr6N-Regular-83pv-RKSJ-H'; font-size:12;">Go Ahead !</text>
<polygon class="st1" points="87.243,2.902 162.268,77.927 12.218,77.927 "/>
</svg>
